<svg width="48" height="35" viewBox="0 0 48 35" fill="none" xmlns="http://www.w3.org/2000/svg">
<path d="M42.3743 8.53564C41.1579 8.52335 39.9862 8.99349 39.1155 9.84302C38.2448 10.6925 37.746 11.8522 37.7283 13.0686C37.7314 13.7086 37.8725 14.3405 38.1417 14.9211C38.4108 15.5018 38.8019 16.0176 39.2884 16.4336L33.4284 18.4888L25.0894 8.80566C25.9847 8.50693 26.7645 7.93646 27.3201 7.17358C27.8758 6.41071 28.1796 5.49331 28.1894 4.54956C28.1642 3.33432 27.6637 2.17743 26.7953 1.3269C25.927 0.476377 24.7599 0 23.5444 0C22.3289 0 21.1617 0.476377 20.2934 1.3269C19.425 2.17743 18.9246 3.33432 18.8993 4.54956C18.909 5.48395 19.2066 6.39274 19.7515 7.15186C20.2964 7.91097 21.0622 8.48368 21.9444 8.79175L13.5923 18.4917L7.73442 16.4368C8.22049 16.0206 8.61121 15.5045 8.88005 14.9238C9.1489 14.3432 9.28955 13.7116 9.29241 13.0718C9.31544 12.195 9.08984 11.3296 8.64177 10.5757C8.1937 9.82172 7.54141 9.2099 6.7603 8.81104C5.97919 8.41217 5.10119 8.2424 4.22771 8.32153C3.35423 8.40067 2.52098 8.72555 1.82427 9.2583C1.12756 9.79105 0.595848 10.5101 0.290577 11.3323C-0.0146943 12.1545 -0.0810551 13.0462 0.0991708 13.9045C0.279397 14.7629 0.698818 15.5526 1.30901 16.1826C1.9192 16.8126 2.69527 17.2571 3.54741 17.4646V29.7556C3.55477 29.8376 3.57148 29.9184 3.59734 29.9966C3.56441 30.1233 3.54768 30.2538 3.54741 30.3848C3.54741 34.7968 21.4663 34.9268 23.5093 34.9268C25.5523 34.9268 43.4714 34.7978 43.4714 30.3848C43.4706 30.2539 43.4538 30.1234 43.4213 29.9966C43.4489 29.9189 43.4658 29.8379 43.4714 29.7556V17.4646C44.5703 17.2244 45.54 16.5828 46.1907 15.6653C46.8414 14.7478 47.1263 13.6204 46.9896 12.5039C46.8528 11.3874 46.3043 10.3621 45.4515 9.62866C44.5986 8.89526 43.5027 8.50653 42.3783 8.53857L42.3743 8.53564ZM21.1553 4.55176C21.1438 4.07755 21.2739 3.61062 21.529 3.21069C21.784 2.81076 22.1525 2.49591 22.5873 2.3064C23.0222 2.11688 23.5037 2.06132 23.9703 2.14673C24.4369 2.23214 24.8674 2.45463 25.207 2.78589C25.5465 3.11715 25.7795 3.542 25.8764 4.00635C25.9733 4.4707 25.9295 4.95345 25.7508 5.39282C25.572 5.8322 25.2664 6.20831 24.8729 6.47314C24.4793 6.73798 24.0158 6.8795 23.5414 6.87964C22.9167 6.88605 22.3148 6.64481 21.8676 6.2085C21.4204 5.77218 21.1643 5.17647 21.1553 4.55176ZM13.5654 20.8276C13.7823 20.9026 14.0167 20.9113 14.2386 20.8525C14.4605 20.7938 14.6599 20.6701 14.8113 20.4976L23.5114 10.3977L32.2114 20.4976C32.3625 20.6702 32.5618 20.7938 32.7835 20.8528C33.0052 20.9117 33.2394 20.9033 33.4563 20.8286L41.2144 18.1038V28.0408C36.3294 25.9188 25.1053 25.8406 23.5143 25.8406C21.9233 25.8406 10.6954 25.9198 5.81438 28.0408V18.1038L13.5654 20.8276ZM23.5084 32.7166C14.8084 32.7166 9.25934 31.7057 6.95134 30.8547C6.60027 30.7373 6.26454 30.578 5.95134 30.3806C6.67334 29.8596 9.01241 29.1487 12.9174 28.6487C19.9528 27.844 27.0569 27.844 34.0923 28.6487C37.9923 29.1487 40.3374 29.8596 41.0574 30.3806C40.7468 30.5794 40.4125 30.7388 40.0624 30.8547C37.7604 31.7037 32.2164 32.7166 23.5084 32.7166ZM2.2614 13.0686C2.25027 12.5945 2.38072 12.1279 2.63604 11.7283C2.89136 11.3286 3.25999 11.0139 3.69487 10.8247C4.12976 10.6355 4.6111 10.5801 5.07756 10.6658C5.54403 10.7514 5.97446 10.9743 6.31377 11.3057C6.65308 11.637 6.8859 12.0618 6.98259 12.5261C7.07929 12.9904 7.03544 13.4731 6.85662 13.9124C6.67779 14.3516 6.37206 14.7277 5.97857 14.9924C5.58507 15.2572 5.12165 15.3986 4.64739 15.3987C4.02223 15.4054 3.41988 15.1638 2.97258 14.7271C2.52529 14.2903 2.26958 13.6937 2.2614 13.0686ZM42.3743 15.3987C41.9163 15.3875 41.4719 15.2414 41.0965 14.9788C40.7211 14.7162 40.4314 14.3487 40.2638 13.9224C40.0962 13.496 40.0581 13.0297 40.1542 12.5818C40.2503 12.1339 40.4765 11.7241 40.8042 11.4041C41.132 11.084 41.5469 10.8677 41.997 10.7822C42.4471 10.6968 42.9124 10.7459 43.3346 10.9236C43.7569 11.1013 44.1174 11.3997 44.371 11.7812C44.6246 12.1628 44.7601 12.6105 44.7604 13.0686C44.7517 13.6935 44.4957 14.2895 44.0485 14.7261C43.6013 15.1626 42.9992 15.4041 42.3743 15.3977V15.3987Z" fill="#F16D7F"/>
</svg>
