<svg width="45" height="32" viewBox="0 0 45 32" fill="none" xmlns="http://www.w3.org/2000/svg">
<path d="M30.258 27.2429H14.781C14.5738 28.5509 13.9067 29.742 12.8997 30.6021C11.8927 31.4621 10.6118 31.9346 9.28752 31.9346C7.96322 31.9346 6.68236 31.4621 5.67534 30.6021C4.66832 29.742 4.00122 28.5509 3.79402 27.2429H1.85701C1.36219 27.2397 0.888842 27.0404 0.540728 26.6887C0.192614 26.337 -0.00184617 25.8618 1.73102e-05 25.3669V1.87695C-0.00211167 1.38195 0.192219 0.906335 0.540362 0.554443C0.888504 0.202551 1.36202 0.00317363 1.85701 0H27.408C27.9029 0.00317353 28.3763 0.202522 28.7243 0.554443C29.0723 0.906364 29.2664 1.38204 29.264 1.87695V3.78198H36.385C36.4654 3.78164 36.5454 3.79208 36.623 3.81299C38.923 4.01299 40.08 5.2129 41.3 7.2749L44.859 13.3689C44.9439 13.5136 44.9887 13.6782 44.989 13.8459V26.304C44.9901 26.5515 44.8928 26.7892 44.7186 26.9651C44.5445 27.141 44.3076 27.2406 44.06 27.2419H41.246C41.0388 28.5499 40.3717 29.741 39.3647 30.6011C38.3577 31.4611 37.0768 31.9336 35.7525 31.9336C34.4282 31.9336 33.1474 31.4611 32.1403 30.6011C31.1333 29.741 30.4662 28.5499 30.259 27.2419L30.258 27.2429ZM32.036 26.304C32.0439 27.0369 32.2685 27.7511 32.6814 28.3567C33.0943 28.9623 33.6772 29.4322 34.3566 29.7073C35.036 29.9824 35.7817 30.0503 36.4996 29.9026C37.2176 29.7548 37.8758 29.398 38.3914 28.877C38.907 28.3559 39.2569 27.6941 39.3972 26.9746C39.5374 26.2551 39.4617 25.5103 39.1795 24.8337C38.8974 24.1572 38.4214 23.5794 37.8115 23.1729C37.2016 22.7663 36.485 22.5491 35.752 22.5488C34.7617 22.5552 33.8143 22.9543 33.1176 23.6582C32.421 24.3621 32.032 25.3136 32.036 26.304ZM5.57204 26.304C5.57993 27.0369 5.80446 27.7511 6.21739 28.3567C6.63033 28.9623 7.2132 29.4322 7.89263 29.7073C8.57205 29.9824 9.31767 30.0503 10.0356 29.9026C10.7536 29.7548 11.4118 29.398 11.9274 28.877C12.443 28.3559 12.7929 27.6941 12.9332 26.9746C13.0734 26.2551 12.9977 25.5103 12.7155 24.8337C12.4334 24.1572 11.9574 23.5794 11.3475 23.1729C10.7376 22.7663 10.021 22.5491 9.28801 22.5488C8.29749 22.5549 7.34985 22.9537 6.653 23.6577C5.95615 24.3617 5.56704 25.3134 5.57103 26.304H5.57204ZM41.244 25.366H43.13V19.7478H40.394C40.2714 19.7473 40.1501 19.7227 40.0371 19.6753C39.924 19.6279 39.8214 19.5585 39.7351 19.4714C39.6488 19.3843 39.5806 19.281 39.5342 19.1675C39.4879 19.054 39.4644 18.9324 39.465 18.8098V16.9629C39.4647 16.2423 39.7403 15.5488 40.235 15.0249H33.856C33.7788 15.0248 33.7019 15.015 33.627 14.9958C32.9223 14.933 32.2668 14.6081 31.7901 14.0852C31.3135 13.5623 31.0505 12.8794 31.053 12.1719V7.47192C31.0524 7.34927 31.0759 7.22758 31.1222 7.11401C31.1685 7.00044 31.2368 6.89725 31.323 6.81006C31.4093 6.72286 31.5119 6.6535 31.625 6.60596C31.7381 6.55841 31.8594 6.53361 31.982 6.53296H38.465C38.1207 6.21428 37.7133 5.97123 37.2693 5.81982C36.8252 5.66842 36.3543 5.61187 35.887 5.65381H29.264V25.3618H30.258C30.4652 24.0538 31.1323 22.8627 32.1394 22.0027C33.1464 21.1426 34.4272 20.6702 35.7515 20.6702C37.0758 20.6702 38.3567 21.1426 39.3637 22.0027C40.3707 22.8627 41.0378 24.0538 41.245 25.3618L41.244 25.366ZM14.78 25.366H27.407V1.87598H1.85701V25.366H3.79402C4.00122 24.058 4.66832 22.8666 5.67534 22.0066C6.68236 21.1465 7.96322 20.6741 9.28752 20.6741C10.6118 20.6741 11.8927 21.1465 12.8997 22.0066C13.9067 22.8666 14.5738 24.058 14.781 25.366H14.78ZM41.322 16.9658V17.875H43.13V16.0278H42.251C42.0042 16.0294 41.768 16.1288 41.5941 16.304C41.4202 16.4792 41.3227 16.716 41.323 16.9629L41.322 16.9658ZM32.909 12.1738C32.908 12.4263 33.007 12.6691 33.1846 12.8486C33.3621 13.0282 33.6035 13.13 33.856 13.1318C33.9199 13.1316 33.9836 13.1384 34.046 13.1519H42.571L39.805 8.41602H32.905L32.909 12.1738ZM33.002 26.3059C32.9991 25.5734 33.2869 24.8695 33.8023 24.3489C34.3176 23.8283 35.0185 23.5333 35.751 23.5288C35.9998 23.5288 36.2384 23.6278 36.4143 23.8037C36.5902 23.9796 36.689 24.218 36.689 24.4668C36.689 24.7156 36.5902 24.9542 36.4143 25.1301C36.2384 25.306 35.9998 25.4048 35.751 25.4048C35.5727 25.4032 35.3979 25.4548 35.2489 25.5527C35.0998 25.6507 34.9832 25.7905 34.9139 25.9548C34.8445 26.1191 34.8255 26.3005 34.8594 26.4756C34.8932 26.6507 34.9783 26.8118 35.1038 26.9385C35.2294 27.0651 35.3897 27.1516 35.5645 27.187C35.7393 27.2224 35.9206 27.2051 36.0856 27.1372C36.2505 27.0693 36.3915 26.9538 36.4908 26.8057C36.59 26.6575 36.643 26.4833 36.643 26.3049C36.643 26.0587 36.7408 25.8226 36.915 25.6484C37.0891 25.4743 37.3253 25.3765 37.5715 25.3765C37.8178 25.3765 38.054 25.4743 38.2281 25.6484C38.4022 25.8226 38.5 26.0587 38.5 26.3049C38.5 27.0343 38.2103 27.7338 37.6946 28.2495C37.1788 28.7652 36.4794 29.0549 35.75 29.0549C35.0207 29.0549 34.3212 28.7652 33.8055 28.2495C33.2897 27.7338 33 27.0343 33 26.3049L33.002 26.3059ZM6.53801 26.3059C6.53508 25.5734 6.82291 24.8695 7.33827 24.3489C7.85364 23.8283 8.55449 23.5333 9.28703 23.5288C9.53581 23.5288 9.77439 23.6278 9.9503 23.8037C10.1262 23.9796 10.225 24.218 10.225 24.4668C10.225 24.7156 10.1262 24.9542 9.9503 25.1301C9.77439 25.306 9.53581 25.4048 9.28703 25.4048C9.1087 25.4032 8.93389 25.4548 8.78484 25.5527C8.63579 25.6507 8.51919 25.7905 8.44985 25.9548C8.3805 26.1191 8.36152 26.3005 8.39534 26.4756C8.42916 26.6507 8.51425 26.8118 8.63979 26.9385C8.76533 27.0651 8.92568 27.1516 9.10048 27.187C9.27528 27.2224 9.45665 27.2051 9.62157 27.1372C9.78649 27.0693 9.92753 26.9538 10.0268 26.8057C10.126 26.6575 10.179 26.4833 10.179 26.3049C10.179 26.0587 10.2768 25.8226 10.451 25.6484C10.6251 25.4743 10.8613 25.3765 11.1075 25.3765C11.3538 25.3765 11.59 25.4743 11.7641 25.6484C11.9382 25.8226 12.036 26.0587 12.036 26.3049C12.036 27.0343 11.7463 27.7338 11.2306 28.2495C10.7149 28.7652 10.0154 29.0549 9.28603 29.0549C8.55668 29.0549 7.8572 28.7652 7.34148 28.2495C6.82575 27.7338 6.53603 27.0343 6.53603 26.3049L6.53801 26.3059ZM4.68004 5.65991C4.43127 5.65991 4.19268 5.56116 4.01677 5.38525C3.84086 5.20934 3.74202 4.9707 3.74202 4.72192C3.74202 4.47315 3.84086 4.2345 4.01677 4.05859C4.19268 3.88268 4.43127 3.78394 4.68004 3.78394H24.58C24.8288 3.78394 25.0674 3.88268 25.2433 4.05859C25.4192 4.2345 25.518 4.47315 25.518 4.72192C25.518 4.9707 25.4192 5.20934 25.2433 5.38525C25.0674 5.56116 24.8288 5.65991 24.58 5.65991H4.68004Z" fill="#F16D7F"/>
</svg>
